<?xml version="1.0" standalone="no"?>
<!DOCTYPE svg PUBLIC "-//W3C//DTD SVG 20010904//EN"
 "http://www.w3.org/TR/2001/REC-SVG-20010904/DTD/svg10.dtd">
<svg version="1.0" xmlns="http://www.w3.org/2000/svg"
 width="69.000000pt" height="98.000000pt" viewBox="0 0 69.000000 98.000000"
 preserveAspectRatio="xMidYMid meet">

<g transform="translate(0.000000,98.000000) scale(0.100000,-0.100000)"
fill="#000000" stroke="none">
<path d="M250 894 c-19 -8 -52 -32 -73 -52 -42 -40 -74 -92 -57 -92 5 0 10 4
10 8 0 5 16 27 36 51 65 76 154 104 246 77 105 -31 178 -127 178 -235 0 -31 5
-63 11 -71 20 -28 4 131 -18 180 -24 55 -74 106 -128 131 -49 23 -155 25 -205
3z"/>
<path d="M252 859 c-53 -26 -125 -109 -94 -109 4 0 16 13 27 30 l20 29 28 -26
c15 -15 25 -33 23 -40 -7 -17 -2 -16 36 7 18 11 45 20 59 20 70 0 139 -98 109
-154 -19 -36 -34 -32 -55 15 -24 52 -53 69 -72 43 -8 -11 -11 -28 -8 -39 4
-11 9 -28 12 -38 5 -15 1 -18 -17 -15 -17 2 -31 18 -49 54 -36 72 -50 87 -68
73 -10 -9 -19 -9 -36 -1 -12 7 -35 10 -50 8 -50 -5 -63 -53 -25 -93 l22 -24
-22 -6 c-28 -7 -29 -43 -1 -69 11 -10 41 -26 66 -34 54 -18 57 -34 8 -38 -37
-3 -56 -25 -38 -43 5 -5 32 -15 59 -22 34 -8 52 -19 59 -34 13 -31 19 -32 124
-21 98 12 127 4 102 -26 -10 -12 -8 -16 9 -21 14 -5 39 2 72 19 32 16 66 26
94 26 51 0 60 17 12 22 -30 3 -33 7 -39 43 -4 21 -12 41 -18 43 -6 2 -11 13
-11 23 0 11 5 17 10 14 6 -4 10 7 9 27 0 30 -1 31 -9 11 -5 -13 -11 -23 -12
-23 -2 0 -4 39 -5 88 -4 152 -42 230 -136 277 -65 32 -135 33 -195 4z m155 -4
c68 -20 77 -33 48 -67 -22 -26 -24 -26 -62 -13 -30 10 -50 11 -80 3 -36 -9
-44 -7 -62 11 -12 12 -21 25 -21 31 0 12 36 31 75 41 44 10 47 10 102 -6z
m111 -82 c23 -34 42 -87 42 -119 0 -27 -17 -32 -26 -9 -4 10 -14 13 -30 9 -21
-5 -24 -3 -24 19 0 14 -8 35 -19 48 -18 23 -18 24 2 51 26 35 31 35 55 1z m20
-175 c32 -35 38 -74 14 -87 -25 -13 -72 -14 -91 -2 -27 17 10 111 44 111 6 0
21 -10 33 -22z"/>
<path d="M90 470 c0 -19 3 -21 12 -12 9 9 9 15 0 24 -9 9 -12 7 -12 -12z"/>
<path d="M90 371 l0 -31 63 2 c41 1 50 3 25 5 -21 2 -38 9 -38 15 0 5 -7 8
-15 4 -9 -3 -15 0 -15 9 0 7 -4 17 -10 20 -6 4 -10 -7 -10 -24z"/>
<path d="M34 236 c-3 -8 -4 -25 -2 -38 2 -18 10 -23 33 -25 21 -1 23 0 7 4
-13 2 -26 11 -29 19 -7 19 16 46 34 40 8 -3 11 -1 8 4 -9 15 -45 12 -51 -4z"/>
<path d="M137 233 c-4 -3 -7 -20 -7 -37 0 -25 2 -28 11 -16 8 11 12 12 16 3 8
-21 19 -15 18 10 -2 38 -21 58 -38 40z"/>
<path d="M226 224 c-20 -19 -20 -29 0 -48 12 -12 20 -13 35 -6 21 12 25 40 7
58 -16 16 -23 15 -42 -4z m32 -41 c-16 -15 -18 -15 -24 0 -3 9 -3 25 0 34 6
15 8 15 24 0 15 -16 15 -18 0 -34z"/>
<path d="M327 233 c-4 -3 -7 -20 -7 -37 0 -28 1 -29 14 -10 9 12 11 21 4 25
-6 4 -3 11 8 18 15 8 16 10 3 11 -9 0 -19 -3 -22 -7z"/>
<path d="M408 205 c2 -19 8 -35 12 -35 4 0 10 16 12 35 3 27 0 35 -12 35 -12
0 -15 -8 -12 -35z"/>
<path d="M492 228 c-27 -27 -2 -75 32 -62 21 8 21 60 0 68 -20 8 -18 8 -32 -6z
m38 -29 c0 -12 -7 -19 -20 -19 -22 0 -29 35 -7 43 18 6 27 -2 27 -24z"/>
<path d="M591 198 c1 -31 1 -31 8 -8 l7 25 8 -22 c11 -34 26 -28 25 10 -1 30
-1 30 -8 7 l-7 -25 -8 23 c-11 33 -26 27 -25 -10z"/>
<path d="M84 138 c-4 -6 2 -19 14 -29 28 -22 27 -27 0 -32 -20 -4 -20 -4 4 -6
36 -1 46 18 20 40 -27 21 -27 26 -4 32 13 4 12 5 -5 6 -12 0 -25 -4 -29 -11z"/>
<path d="M180 125 c-18 -22 -8 -50 20 -52 16 -1 18 0 7 3 -21 7 -20 51 1 46 8
-1 11 2 7 8 -9 14 -20 13 -35 -5z"/>
<path d="M370 125 c-19 -23 -8 -50 20 -50 19 0 26 6 28 24 5 35 -26 53 -48 26z
m38 -23 c3 -17 -2 -22 -17 -22 -14 0 -21 6 -21 18 0 38 33 41 38 4z"/>
<path d="M470 125 c-19 -23 -8 -50 22 -53 19 -2 28 2 33 18 12 39 -29 66 -55
35z m40 -26 c0 -20 -24 -26 -35 -9 -8 13 14 42 26 34 5 -3 9 -14 9 -25z"/>
<path d="M571 108 c-1 -30 3 -38 17 -38 11 0 13 3 5 8 -6 4 -13 21 -16 37 -4
27 -4 27 -6 -7z"/>
<path d="M260 100 c0 -16 5 -30 10 -30 6 0 10 7 10 16 0 9 6 14 13 11 6 -2 11
-10 10 -16 -2 -6 2 -11 7 -11 6 0 10 15 9 33 0 17 -3 26 -6 20 -6 -15 -33 -17
-33 -3 0 6 -4 10 -10 10 -5 0 -10 -13 -10 -30z"/>
</g>
</svg>
